<svg fill="#000000" xmlns="http://www.w3.org/2000/svg"  viewBox="0 0 64 64" width="64px" height="64px"><path d="M48 47h-2c-.552 0-1 .448-1 1 0 .552.448 1 1 1h2c.552 0 1-.448 1-1C49 47.448 48.552 47 48 47zM48 42h-2c-.552 0-1 .448-1 1 0 .552.448 1 1 1h2c.552 0 1-.448 1-1C49 42.448 48.552 42 48 42zM48 37h-2c-.552 0-1 .448-1 1 0 .552.448 1 1 1h2c.552 0 1-.448 1-1C49 37.448 48.552 37 48 37zM48 32h-2c-.552 0-1 .448-1 1 0 .552.448 1 1 1h2c.552 0 1-.448 1-1C49 32.448 48.552 32 48 32zM48 27h-2c-.552 0-1 .448-1 1 0 .552.448 1 1 1h2c.552 0 1-.448 1-1C49 27.448 48.552 27 48 27zM48 22h-2c-.552 0-1 .448-1 1 0 .552.448 1 1 1h2c.552 0 1-.448 1-1C49 22.448 48.552 22 48 22zM22 46.881v-2.098V38v-3.5c0-1.933-1.567-3.5-3.5-3.5S15 32.567 15 34.5V38v4.57 2.098V49.5c0 1.933 1.567 3.5 3.5 3.5s3.5-1.567 3.5-3.5V46.881zM20 49.5c0 .827-.673 1.5-1.5 1.5S17 50.327 17 49.5v-15c0-.827.673-1.5 1.5-1.5s1.5.673 1.5 1.5V49.5zM32 50.023v-2.096V38v-7.5c0-1.933-1.567-3.5-3.5-3.5S25 28.567 25 30.5V38v7.729 2.097V52v1.5c0 1.933 1.567 3.5 3.5 3.5s3.5-1.567 3.5-3.5V50.023zM30 53.5c0 .827-.673 1.5-1.5 1.5S27 54.327 27 53.5v-23c0-.827.673-1.5 1.5-1.5s1.5.673 1.5 1.5V53.5zM5 37.5l0 7.802c0 1.895 1.419 3.594 3.312 3.693C10.33 49.101 12 47.495 12 45.5v-1.784-2.099V37.5c0-1.933-1.567-3.5-3.5-3.5h0C6.567 34 5 35.567 5 37.5zM10 45.5c0 .827-.673 1.5-1.5 1.5S7 46.327 7 45.5v-8C7 36.673 7.673 36 8.5 36s1.5.673 1.5 1.5V45.5z"/><path d="M53.086,16.442L14.333,4.266C13.758,4.093,13.163,4,12.568,4c-1.128,0-2.253,0.335-3.235,1.099C7.833,6.099,7,7.766,7,9.599V31c0,0.552,0.448,1,1,1s1-0.448,1-1V9.599c0-1.191,0.526-2.225,1.443-2.836l0.061-0.041l0.058-0.045C11.139,6.228,11.815,6,12.568,6c0.389,0,0.789,0.061,1.166,0.174L52.487,18.35C54.578,19.007,56,20.945,56,23.136v27.017c0,2.114-1.711,3.834-3.813,3.834c-0.374,0-0.75-0.057-1.118-0.168c-1.82-0.551-3.761-1.145-5.771-1.762C44.655,51.859,44,52.339,44,53.011v0c0,0.439,0.29,0.828,0.71,0.957c2.009,0.618,3.953,1.212,5.779,1.765c0.57,0.172,1.14,0.254,1.698,0.254c3.105,0,5.813-2.519,5.813-5.834V23.136C58,20.071,56.011,17.361,53.086,16.442z"/><path d="M42,51.04V49V26.698c0-1.895-1.419-3.594-3.312-3.693C36.67,22.899,35,24.505,35,26.5V38v10.865v2.095v5.407c0,1.895,1.419,3.594,3.312,3.693C40.33,60.166,42,58.56,42,56.565V56v-2.866V51.04z M40,56.565c0,0.827-0.673,1.5-1.5,1.5s-1.5-0.673-1.5-1.5V26.5c0-0.827,0.673-1.5,1.5-1.5s1.5,0.673,1.5,1.5V56.565z"/></svg>